<svg xmlns="http://www.w3.org/2000/svg" xmlns:xlink="http://www.w3.org/1999/xlink" id="Layer_1" width="29.466" height="24.848" x="0" y="0" enable-background="new 0 4.782 29.466 24.848" version="1.1" viewBox="0 4.782 29.466 24.848" xml:space="preserve"><g><path fill="#4D4D4D" d="M28.611,29.63H1.216c-0.329,0-0.613-0.121-0.854-0.362S0,28.732,0,28.385c0-0.329,0.121-0.613,0.362-0.854 c0.241-0.242,0.526-0.362,0.854-0.362h27.396c0.328,0,0.613,0.12,0.854,0.362c0.241,0.241,0.362,0.525,0.362,0.854 c0,0.348-0.121,0.642-0.362,0.883C29.224,29.509,28.939,29.63,28.611,29.63z M14.914,23.867l-7.472-7.443 c-0.251-0.25-0.376-0.55-0.376-0.897c0-0.328,0.125-0.612,0.376-0.854c0.251-0.241,0.541-0.361,0.869-0.361 c0.347,0,0.637,0.115,0.869,0.348l4.489,4.518V6.028c0-0.348,0.12-0.643,0.362-0.884c0.241-0.241,0.536-0.362,0.883-0.362 s0.642,0.121,0.883,0.362c0.241,0.241,0.362,0.536,0.362,0.884v13.147l4.489-4.489c0.27-0.231,0.56-0.348,0.869-0.348 c0.309,0,0.598,0.116,0.869,0.348c0.25,0.251,0.376,0.551,0.376,0.897c0,0.329-0.126,0.618-0.376,0.869L14.914,23.867z"/></g></svg>