<svg xmlns="http://www.w3.org/2000/svg" xmlns:cc="http://web.resource.org/cc/" xmlns:svg="http://www.w3.org/2000/svg" xmlns:xlink="http://www.w3.org/1999/xlink" id="svg2108" width="48" height="48" version="1.0"><defs id="defs3"><linearGradient id="linearGradient29443" x1="35.004" x2="27.273" y1="10.957" y2="24.144" gradientTransform="matrix(0.75454,0,0,0.742365,-8.64172,-13.1102)" gradientUnits="userSpaceOnUse" xlink:href="#linearGradient29418"/><linearGradient id="linearGradient29418"><stop style="stop-color:#f5f5f5;stop-opacity:1" id="stop29420" offset="0"/><stop style="stop-color:#e9e9e9;stop-opacity:1" id="stop29422" offset="1"/></linearGradient><linearGradient id="linearGradient29429" x1="26.012" x2="39.037" y1="10.916" y2="26.258" gradientTransform="matrix(-0.777956,0,0,0.73623,59.633,-15.22801)" gradientUnits="userSpaceOnUse" xlink:href="#linearGradient29418"/><linearGradient id="linearGradient4356"><stop style="stop-color:#000;stop-opacity:1" id="stop4358" offset="0"/><stop style="stop-color:#000;stop-opacity:0" id="stop4360" offset="1"/></linearGradient><linearGradient id="linearGradient4344"><stop style="stop-color:#727e0a;stop-opacity:1" id="stop4346" offset="0"/><stop style="stop-color:#5b6508;stop-opacity:1" id="stop4348" offset="1"/></linearGradient><linearGradient id="linearGradient4338"><stop id="stop4340" offset="0" style="stop-color:#e9b15e;stop-opacity:1"/><stop id="stop4342" offset="1" style="stop-color:#966416;stop-opacity:1"/></linearGradient><linearGradient id="linearGradient4163"><stop style="stop-color:#3b74bc;stop-opacity:1" id="stop4165" offset="0"/><stop style="stop-color:#2d5990;stop-opacity:1" id="stop4167" offset="1"/></linearGradient><linearGradient id="linearGradient3824"><stop style="stop-color:#fff;stop-opacity:1" id="stop3826" offset="0"/><stop style="stop-color:#c9c9c9;stop-opacity:1" id="stop3828" offset="1"/></linearGradient><linearGradient id="linearGradient3816"><stop style="stop-color:#000;stop-opacity:1" id="stop3818" offset="0"/><stop style="stop-color:#000;stop-opacity:0" id="stop3820" offset="1"/></linearGradient><linearGradient id="linearGradient3800"><stop style="stop-color:#f4d9b1;stop-opacity:1" id="stop3802" offset="0"/><stop style="stop-color:#df9725;stop-opacity:1" id="stop3804" offset="1"/></linearGradient><radialGradient id="radialGradient3806" cx="29.345" cy="17.064" r="9.162" fx="29.345" fy="17.064" gradientUnits="userSpaceOnUse" xlink:href="#linearGradient3800"/><linearGradient id="linearGradient4175" x1="30.936" x2="30.936" y1="29.553" y2="35.803" gradientTransform="translate(0.707108,0)" gradientUnits="userSpaceOnUse" xlink:href="#linearGradient3824"/><radialGradient id="radialGradient4179" cx="31.113" cy="19.009" r="8.662" fx="31.113" fy="19.009" gradientUnits="userSpaceOnUse" xlink:href="#linearGradient3816"/><linearGradient id="linearGradient4326" x1="30.936" x2="30.936" y1="29.553" y2="35.803" gradientTransform="translate(-12.41789,-7)" gradientUnits="userSpaceOnUse" xlink:href="#linearGradient3824"/><radialGradient id="radialGradient4328" cx="29.345" cy="17.064" r="9.162" fx="29.345" fy="17.064" gradientTransform="matrix(0.787998,0,0,0.787998,6.221198,3.617627)" gradientUnits="userSpaceOnUse" xlink:href="#linearGradient4338"/><radialGradient id="radialGradient4330" cx="31.113" cy="19.009" r="8.662" fx="31.113" fy="19.009" gradientUnits="userSpaceOnUse" xlink:href="#linearGradient3816"/><linearGradient id="linearGradient4332" x1="30.936" x2="30.936" y1="29.553" y2="35.803" gradientTransform="translate(-13.125,-7)" gradientUnits="userSpaceOnUse" xlink:href="#linearGradient3824"/><radialGradient id="radialGradient4336" cx="31.113" cy="19.009" r="8.662" fx="31.113" fy="19.009" gradientUnits="userSpaceOnUse" xlink:href="#linearGradient3816"/><radialGradient id="radialGradient4350" cx="16.215" cy="19.836" r="13.565" fx="16.215" fy="19.836" gradientTransform="matrix(1,0,0,0.681917,0,8.233773)" gradientUnits="userSpaceOnUse" xlink:href="#linearGradient4344"/><linearGradient id="linearGradient4372" x1="20.662" x2="22.627" y1="35.818" y2="36.218" gradientTransform="matrix(0.983375,0.181588,-0.181588,0.983375,-7.07212,-9.82492)" gradientUnits="userSpaceOnUse" xlink:href="#linearGradient4356"/><linearGradient id="linearGradient4374" x1="22.687" x2="21.408" y1="36.39" y2="35.74" gradientTransform="matrix(-0.977685,0.210075,0.210075,0.977685,41.80576,-11.11866)" gradientUnits="userSpaceOnUse" xlink:href="#linearGradient4356"/><linearGradient id="linearGradient1369" x1="20.662" x2="22.627" y1="35.818" y2="36.218" gradientTransform="matrix(0.733521,0.13545,-0.13545,0.733521,-2.644344,-1.150537)" gradientUnits="userSpaceOnUse" xlink:href="#linearGradient4356"/><radialGradient id="radialGradient1381" cx="16.215" cy="19.836" r="13.565" fx="16.215" fy="19.836" gradientTransform="matrix(0.745922,0,0,0.508657,2.630905,12.31984)" gradientUnits="userSpaceOnUse" xlink:href="#linearGradient4344"/><radialGradient id="radialGradient3711" cx="31.113" cy="19.009" r="8.662" fx="31.113" fy="19.009" gradientUnits="userSpaceOnUse" xlink:href="#linearGradient3816"/><linearGradient id="linearGradient3713" x1="22.687" x2="21.408" y1="36.39" y2="35.74" gradientTransform="matrix(-0.729277,0.1567,0.1567,0.729277,51.23021,-4.732107)" gradientUnits="userSpaceOnUse" xlink:href="#linearGradient4356"/><linearGradient id="linearGradient3715" x1="20.662" x2="22.627" y1="35.818" y2="36.218" gradientTransform="matrix(0.733521,0.13545,-0.13545,0.733521,14.77113,-3.767076)" gradientUnits="userSpaceOnUse" xlink:href="#linearGradient4356"/><radialGradient id="radialGradient3717" cx="29.345" cy="17.064" r="9.162" fx="29.345" fy="17.064" gradientTransform="matrix(0.787998,0,0,0.787998,6.221198,3.617627)" gradientUnits="userSpaceOnUse" xlink:href="#linearGradient3800"/><linearGradient id="linearGradient3719" x1="30.936" x2="30.936" y1="29.553" y2="35.803" gradientTransform="matrix(0.745922,0,0,0.745922,10.12275,-1.789289)" gradientUnits="userSpaceOnUse" xlink:href="#linearGradient3824"/><radialGradient id="radialGradient3721" cx="28.09" cy="27.203" r="13.565" fx="28.09" fy="27.203" gradientTransform="matrix(0.967882,0,0,0.660015,3.887956,1.895916)" gradientUnits="userSpaceOnUse" xlink:href="#linearGradient4163"/><linearGradient id="linearGradient3723" x1="22.687" x2="21.408" y1="36.39" y2="35.74" gradientTransform="matrix(-0.729277,0.1567,0.1567,0.729277,32.3229,-2.115566)" gradientUnits="userSpaceOnUse" xlink:href="#linearGradient4356"/></defs><metadata id="metadata4"/><g id="layer1" transform="translate(-0.483115,12.91388)" style="display:inline"><path style="opacity:1;color:#000;fill:url(#radialGradient4336);fill-opacity:1;fill-rule:evenodd;stroke:none;stroke-width:1px;stroke-linecap:round;stroke-linejoin:round;marker:none;marker-start:none;marker-mid:none;marker-end:none;stroke-miterlimit:4;stroke-dasharray:none;stroke-dashoffset:0;stroke-opacity:1;visibility:visible;display:inline;overflow:visible" id="path4177" d="M 39.774755 19.008621 A 8.6620579 8.6620579 0 1 1 22.45064,19.008621 A 8.6620579 8.6620579 0 1 1 39.774755 19.008621 z" transform="matrix(1.324392,0,0,0.715476,-25.25033,14.95873)"/><path style="opacity:1;color:#000;fill:url(#radialGradient1381);fill-opacity:1;fill-rule:evenodd;stroke:#404604;stroke-width:.74592197px;stroke-linecap:round;stroke-linejoin:round;marker:none;marker-start:none;marker-mid:none;marker-end:none;stroke-miterlimit:4;stroke-dasharray:none;stroke-dashoffset:0;stroke-opacity:1;visibility:visible;display:inline;overflow:visible" id="path2329" d="M 12.224337,32.013868 L 20.136034,32.013868 C 22.377682,32.013868 24.597009,31.191912 25.410498,28.849189 C 26.183004,26.624494 25.54236,22.38797 20.531619,18.959568 L 11.169444,18.959568 C 6.158703,22.124246 5.5325184,26.452227 6.686149,28.98105 C 7.86142,31.557308 9.850828,32.013868 12.224337,32.013868 z"/><path id="path3812" d="M 16.007051,20.937492 C 16.007051,20.937492 14.402332,22.175973 14.540575,23.667964 C 13.01798,22.324712 12.974234,19.750737 12.974234,19.750737 L 16.007051,20.937492 z" style="opacity:1;color:#000;fill:#9db029;fill-opacity:1;fill-rule:evenodd;stroke:none;stroke-width:1px;stroke-linecap:round;stroke-linejoin:round;marker:none;marker-start:none;marker-mid:none;marker-end:none;stroke-miterlimit:4;stroke-dasharray:none;stroke-dashoffset:0;stroke-opacity:1;visibility:visible;display:inline;overflow:visible"/><path id="path3838" d="M 12.303006,31.220055 L 19.998436,31.220055 C 21.967464,31.220055 23.916884,30.498063 24.631441,28.440253 C 25.309998,26.486116 24.560786,22.764821 20.159431,19.753367 L 11.562886,19.753367 C 7.161531,22.53317 6.42502,26.3348 7.43835,28.556077 C 8.47069,30.819021 10.218153,31.220055 12.303006,31.220055 z" style="opacity:.21518986;color:#000;fill:none;fill-opacity:1;fill-rule:evenodd;stroke:#fff;stroke-width:.74592179px;stroke-linecap:round;stroke-linejoin:round;marker:none;marker-start:none;marker-mid:none;marker-end:none;stroke-miterlimit:4;stroke-dasharray:none;stroke-dashoffset:0;stroke-opacity:1;visibility:visible;display:inline;overflow:visible"/><path style="opacity:1;color:#000;fill:#9db029;fill-opacity:1;fill-rule:evenodd;stroke:none;stroke-width:1px;stroke-linecap:round;stroke-linejoin:round;marker:none;marker-start:none;marker-mid:none;marker-end:none;stroke-miterlimit:4;stroke-dasharray:none;stroke-dashoffset:0;stroke-opacity:1;visibility:visible;display:inline;overflow:visible" id="path3810" d="M 16.736882,20.937492 C 16.736882,20.937492 18.341601,22.175973 18.203358,23.667964 C 19.725953,22.324712 19.769699,19.750737 19.769699,19.750737 L 16.736882,20.937492 z"/><path id="path3814" d="M 39.774755 19.008621 A 8.6620579 8.6620579 0 1 1 22.45064,19.008621 A 8.6620579 8.6620579 0 1 1 39.774755 19.008621 z" transform="matrix(0.745922,0,0,0.745922,-7.252561,3.567359)" style="opacity:1;color:#000;fill:url(#radialGradient4330);fill-opacity:1;fill-rule:evenodd;stroke:none;stroke-width:1px;stroke-linecap:round;stroke-linejoin:round;marker:none;marker-start:none;marker-mid:none;marker-end:none;stroke-miterlimit:4;stroke-dasharray:none;stroke-dashoffset:0;stroke-opacity:1;visibility:visible;display:inline;overflow:visible"/><path style="opacity:1;color:#000;fill:url(#radialGradient4328);fill-opacity:1;fill-rule:evenodd;stroke:#6f4709;stroke-width:1px;stroke-linecap:round;stroke-linejoin:round;marker:none;marker-start:none;marker-mid:none;marker-end:none;stroke-miterlimit:4;stroke-dasharray:none;stroke-dashoffset:0;stroke-opacity:1;visibility:visible;display:inline;overflow:visible" id="path2327" d="M 39.774755 19.008621 A 8.6620579 8.6620579 0 1 1 22.45064,19.008621 A 8.6620579 8.6620579 0 1 1 39.774755 19.008621 z" transform="matrix(0.745922,0,0,0.745922,-7.15932,0.956633)"/><path id="path3834" d="M 39.774755 19.008621 A 8.6620579 8.6620579 0 1 1 22.45064,19.008621 A 8.6620579 8.6620579 0 1 1 39.774755 19.008621 z" transform="matrix(0.654244,0,0,0.654244,-4.306967,2.699305)" style="opacity:.12658231;color:#000;fill:none;fill-opacity:1;fill-rule:evenodd;stroke:#fff;stroke-width:1.14012825px;stroke-linecap:round;stroke-linejoin:round;marker:none;marker-start:none;marker-mid:none;marker-end:none;stroke-miterlimit:4;stroke-dasharray:none;stroke-dashoffset:0;stroke-opacity:1;visibility:visible;display:inline;overflow:visible"/><path style="opacity:.22784807;color:#000;fill:url(#linearGradient1369);fill-opacity:1;fill-rule:evenodd;stroke:none;stroke-width:1px;stroke-linecap:round;stroke-linejoin:round;marker:none;marker-start:none;marker-mid:none;marker-end:none;stroke-miterlimit:4;stroke-dasharray:none;stroke-dashoffset:0;stroke-opacity:1;visibility:visible;display:inline;overflow:visible" id="path4368" d="M 9.007011,31.242367 C 8.076394,30.835862 7.659881,29.856237 7.659881,29.856237 C 8.287411,26.820979 10.434655,24.60031 10.434655,24.60031 C 10.434655,24.60031 8.734459,29.382799 9.007011,31.242367 z"/><path id="path4370" d="M 21.617349,30.602104 C 22.535767,30.16874 22.963276,29.108529 22.963276,29.108529 C 22.247847,26.092779 19.997379,24.004318 19.997379,24.004318 C 19.997379,24.004318 21.835773,28.735404 21.617349,30.602104 z" style="opacity:.22784807;color:#000;fill:url(#linearGradient3723);fill-opacity:1;fill-rule:evenodd;stroke:none;stroke-width:1px;stroke-linecap:round;stroke-linejoin:round;marker:none;marker-start:none;marker-mid:none;marker-end:none;stroke-miterlimit:4;stroke-dasharray:none;stroke-dashoffset:0;stroke-opacity:1;visibility:visible;display:inline;overflow:visible"/><path style="color:#000;fill:url(#linearGradient29429);fill-opacity:1;fill-rule:nonzero;stroke:#787878;stroke-width:.759;stroke-linecap:butt;stroke-linejoin:miter;marker:none;marker-start:none;marker-mid:none;marker-end:none;stroke-miterlimit:4;stroke-dashoffset:0;stroke-opacity:1;visibility:visible;display:block;overflow:visible;stroke-dasharray:none" id="rect29408" d="M 43.052775,-10.534547 C 43.879966,-10.534547 44.535753,-9.890925 44.535753,-9.108103 L 44.535753,2.1193982 C 44.535753,2.9022214 43.879966,3.5228358 43.052775,3.5228358 L 32.137088,3.5228358 C 31.475903,4.3455779 29.689237,6.0545415 26.604687,7.1648551 C 27.977999,5.637507 28.475074,4.2252791 28.320242,3.5228358 L 26.08362,3.5228358 C 25.256431,3.5228358 24.576333,2.9022214 24.576331,2.1193982 L 24.576331,-9.108103 C 24.576331,-9.890925 25.256431,-10.534547 26.08362,-10.534547 L 43.052775,-10.534547 z"/><path id="path29441" d="M 7.4394558,-8.37762 C 6.6371619,-8.37762 6.0011123,-7.728635 6.0011123,-6.939287 L 6.0011123,4.381783 C 6.0011123,5.1711306 6.6371619,5.7969172 7.4394558,5.7969172 L 18.026603,5.7969172 C 18.667886,6.6265161 19.915827,7.9715968 22.907538,9.0911639 C 21.57556,7.5510868 21.578398,6.5052145 21.728568,5.7969172 L 23.897872,5.7969172 C 24.700165,5.7969172 25.359793,5.1711306 25.359794,4.381783 L 25.359794,-6.939287 C 25.359794,-7.728635 24.700165,-8.37762 23.897872,-8.37762 L 7.4394558,-8.37762 z" style="color:#000;fill:url(#linearGradient29443);fill-opacity:1;fill-rule:nonzero;stroke:#787878;stroke-width:.758663;stroke-linecap:butt;stroke-linejoin:miter;marker:none;marker-start:none;marker-mid:none;marker-end:none;stroke-miterlimit:4;stroke-dashoffset:0;stroke-opacity:1;visibility:visible;display:block;overflow:visible"/><text style="font-size:12px;font-style:normal;font-weight:400;fill:#000;fill-opacity:1;stroke:none;stroke-width:1px;stroke-linecap:butt;stroke-linejoin:miter;stroke-opacity:1;font-family:Bitstream Vera Sans" id="text4612" x="7.983" y=".586" xml:space="preserve"><tspan id="tspan4614" x="7.983" y=".586" style="font-size:6px;font-family:Arial Black">YES!</tspan></text><text id="text4616" x="27.858" y="-1.539" xml:space="preserve" style="font-size:12px;font-style:normal;font-weight:400;fill:#000;fill-opacity:1;stroke:none;stroke-width:1px;stroke-linecap:butt;stroke-linejoin:miter;stroke-opacity:1;font-family:Bitstream Vera Sans"><tspan style="font-size:6px;font-family:Arial Black" id="tspan4618" x="27.858" y="-1.539">NO?</tspan></text></g><g id="layer2" transform="translate(-0.483115,12.91388)" style="display:inline"><path style="opacity:1;color:#000;fill:url(#radialGradient4179);fill-opacity:1;fill-rule:evenodd;stroke:none;stroke-width:1px;stroke-linecap:round;stroke-linejoin:round;marker:none;marker-start:none;marker-mid:none;marker-end:none;stroke-miterlimit:4;stroke-dasharray:none;stroke-dashoffset:0;stroke-opacity:1;visibility:visible;display:inline;overflow:visible" id="path4306" d="M 39.774755 19.008621 A 8.6620579 8.6620579 0 1 1 22.45064,19.008621 A 8.6620579 8.6620579 0 1 1 39.774755 19.008621 z" transform="matrix(1.324392,0,0,0.715476,-7.4601,13.22912)"/><path style="opacity:1;color:#000;fill:url(#radialGradient3721);fill-opacity:1;fill-rule:evenodd;stroke:#204a87;stroke-width:.74592197px;stroke-linecap:round;stroke-linejoin:round;marker:none;marker-start:none;marker-mid:none;marker-end:none;stroke-miterlimit:4;stroke-dasharray:none;stroke-dashoffset:0;stroke-opacity:1;visibility:visible;display:inline;overflow:visible" id="path4308" d="M 29.506406,29.267946 L 37.418104,29.267946 C 39.659751,29.267946 41.879078,28.445991 42.692568,26.103267 C 43.465074,23.878572 42.82443,19.642048 37.813688,16.213646 L 28.451513,16.213646 C 23.440772,19.378324 22.814588,23.706306 23.968219,26.235128 C 25.14349,28.811386 27.132897,29.267946 29.506406,29.267946 z"/><path style="opacity:1;color:#000;fill:url(#linearGradient3719);fill-opacity:1;fill-rule:evenodd;stroke:none;stroke-width:1px;stroke-linecap:round;stroke-linejoin:round;marker:none;marker-start:none;marker-mid:none;marker-end:none;stroke-miterlimit:4;stroke-dasharray:none;stroke-dashoffset:0;stroke-opacity:1;visibility:visible;display:inline;overflow:visible" id="path4310" d="M 30.033853,17.4004 C 32.407362,19.510186 33.462255,27.15816 33.462255,27.15816 C 33.462255,27.15816 34.517148,19.510187 36.36321,17.268539 L 30.033853,17.4004 z"/><path id="path4312" d="M 31.734137,18.19157 C 31.734137,18.19157 30.129418,19.430051 30.267662,20.922042 C 28.745066,19.57879 28.70132,17.004815 28.70132,17.004815 L 31.734137,18.19157 z" style="opacity:1;color:#000;fill:#729fcf;fill-opacity:1;fill-rule:evenodd;stroke:none;stroke-width:1px;stroke-linecap:round;stroke-linejoin:round;marker:none;marker-start:none;marker-mid:none;marker-end:none;stroke-miterlimit:4;stroke-dasharray:none;stroke-dashoffset:0;stroke-opacity:1;visibility:visible;display:inline;overflow:visible"/><path id="path4314" d="M 29.453213,28.490616 L 37.280506,28.474133 C 39.249533,28.474133 41.198954,27.752141 41.91351,25.694331 C 42.592067,23.740194 41.842855,20.018899 37.4415,17.007445 L 28.844955,16.826136 C 24.4436,19.605938 23.59171,23.407568 24.621523,25.810155 C 25.651337,28.212742 27.154086,28.474133 29.453213,28.490616 z" style="opacity:.21518986;color:#000;fill:none;fill-opacity:1;fill-rule:evenodd;stroke:#fff;stroke-width:.74592179px;stroke-linecap:round;stroke-linejoin:round;marker:none;marker-start:none;marker-mid:none;marker-end:none;stroke-miterlimit:4;stroke-dasharray:none;stroke-dashoffset:0;stroke-opacity:1;visibility:visible;display:inline;overflow:visible"/><path style="opacity:1;color:#000;fill:#729fcf;fill-opacity:1;fill-rule:evenodd;stroke:none;stroke-width:1px;stroke-linecap:round;stroke-linejoin:round;marker:none;marker-start:none;marker-mid:none;marker-end:none;stroke-miterlimit:4;stroke-dasharray:none;stroke-dashoffset:0;stroke-opacity:1;visibility:visible;display:inline;overflow:visible" id="path4316" d="M 35.044594,18.19157 C 35.044594,18.19157 36.649313,19.430051 36.51107,20.922042 C 38.033665,19.57879 38.077411,17.004815 38.077411,17.004815 L 35.044594,18.19157 z"/><path id="path4318" d="M 39.774755 19.008621 A 8.6620579 8.6620579 0 1 1 22.45064,19.008621 A 8.6620579 8.6620579 0 1 1 39.774755 19.008621 z" transform="matrix(0.745922,0,0,0.745922,10.02951,0.821437)" style="opacity:1;color:#000;fill:url(#radialGradient3711);fill-opacity:1;fill-rule:evenodd;stroke:none;stroke-width:1px;stroke-linecap:round;stroke-linejoin:round;marker:none;marker-start:none;marker-mid:none;marker-end:none;stroke-miterlimit:4;stroke-dasharray:none;stroke-dashoffset:0;stroke-opacity:1;visibility:visible;display:inline;overflow:visible"/><path style="opacity:1;color:#000;fill:url(#radialGradient3717);fill-opacity:1;fill-rule:evenodd;stroke:#c17d11;stroke-width:1px;stroke-linecap:round;stroke-linejoin:round;marker:none;marker-start:none;marker-mid:none;marker-end:none;stroke-miterlimit:4;stroke-dasharray:none;stroke-dashoffset:0;stroke-opacity:1;visibility:visible;display:inline;overflow:visible" id="path4320" d="M 39.774755 19.008621 A 8.6620579 8.6620579 0 1 1 22.45064,19.008621 A 8.6620579 8.6620579 0 1 1 39.774755 19.008621 z" transform="matrix(0.745922,0,0,0.745922,10.12275,-1.789289)"/><path id="path4322" d="M 39.774755 19.008621 A 8.6620579 8.6620579 0 1 1 22.45064,19.008621 A 8.6620579 8.6620579 0 1 1 39.774755 19.008621 z" transform="matrix(0.654244,0,0,0.654244,12.9751,-4.6617e-2)" style="opacity:.19620254;color:#000;fill:none;fill-opacity:1;fill-rule:evenodd;stroke:#fff;stroke-width:1.14012825px;stroke-linecap:round;stroke-linejoin:round;marker:none;marker-start:none;marker-mid:none;marker-end:none;stroke-miterlimit:4;stroke-dasharray:none;stroke-dashoffset:0;stroke-opacity:1;visibility:visible;display:inline;overflow:visible"/><path style="opacity:.22784807;color:#000;fill:url(#linearGradient3715);fill-opacity:1;fill-rule:evenodd;stroke:none;stroke-width:1px;stroke-linecap:round;stroke-linejoin:round;marker:none;marker-start:none;marker-mid:none;marker-end:none;stroke-miterlimit:4;stroke-dasharray:none;stroke-dashoffset:0;stroke-opacity:1;visibility:visible;display:inline;overflow:visible" id="path4354" d="M 26.422479,28.625825 C 25.491861,28.219321 25.075348,27.239695 25.075348,27.239695 C 25.702878,24.204437 27.850122,21.983768 27.850122,21.983768 C 27.850122,21.983768 26.149926,26.766257 26.422479,28.625825 z"/><path id="path4364" d="M 40.52466,27.985562 C 41.443078,27.552198 41.870587,26.491987 41.870587,26.491987 C 41.155158,23.476237 38.90469,21.387776 38.90469,21.387776 C 38.90469,21.387776 40.743084,26.118863 40.52466,27.985562 z" style="opacity:.22784807;color:#000;fill:url(#linearGradient3713);fill-opacity:1;fill-rule:evenodd;stroke:none;stroke-width:1px;stroke-linecap:round;stroke-linejoin:round;marker:none;marker-start:none;marker-mid:none;marker-end:none;stroke-miterlimit:4;stroke-dasharray:none;stroke-dashoffset:0;stroke-opacity:1;visibility:visible;display:inline;overflow:visible"/></g></svg>