<svg xmlns="http://www.w3.org/2000/svg" xmlns:xlink="http://www.w3.org/1999/xlink" id="Layer_1" width="45.637" height="45.638" x="0" y="0" enable-background="new 0 0 45.637 45.638" version="1.1" viewBox="0 0 45.637 45.638" xml:space="preserve"><path fill="#FFF" d="M17.578,21.967v2.61h4.317c-0.175,1.12-1.307,3.282-4.317,3.282c-2.599,0-4.718-2.15-4.718-4.805	c0-2.652,2.119-4.805,4.718-4.805c1.478,0,2.467,0.631,3.033,1.174l2.064-1.99c-1.324-1.239-3.042-1.988-5.098-1.988	c-4.207,0-7.609,3.402-7.609,7.609c0,4.208,3.402,7.609,7.609,7.609c4.393,0,7.307-3.087,7.307-7.436c0-0.5-0.056-0.881-0.122-1.262	H17.578z M36.059,24.142h-3.261v3.262h-2.175v-3.262h-3.261v-2.175h3.261v-3.26h2.175v3.26h3.261V24.142"/></svg>